<?xml version="1.0" encoding="UTF-8" standalone="no"?>
<!DOCTYPE svg PUBLIC "-//W3C//DTD SVG 20010904//EN"
              "http://www.w3.org/TR/2001/REC-SVG-20010904/DTD/svg10.dtd">

<svg xmlns="http://www.w3.org/2000/svg"
     width="32px" height="32px"
     viewBox="0 0 198 111">
  <path id="Selection"
        fill="black" stroke="black" stroke-width="1"
        d="M 26.23,23.67
           C 24.60,22.04 21.47,17.12 25.30,15.95
             29.69,14.61 38.05,23.99 43.79,20.94
             46.16,19.68 48.69,14.42 50.51,12.00
             55.97,4.79 61.68,0.34 71.00,0.04
             83.44,-0.35 87.91,11.06 79.79,19.91
             72.20,28.17 62.30,28.64 52.00,30.00
             51.13,40.76 48.24,51.54 43.00,61.00
             43.00,61.00 50.00,64.43 50.00,64.43
             54.37,66.04 58.05,64.95 59.01,59.98
             59.01,59.98 59.01,54.00 59.01,54.00
             59.76,48.55 62.69,37.52 68.97,36.36
             73.87,35.46 73.53,39.78 72.64,43.00
             71.25,47.98 69.26,52.81 68.66,58.00
             68.44,59.90 68.30,62.80 70.43,63.75
             72.70,64.77 75.13,62.43 76.47,60.89
             76.47,60.89 85.96,44.59 85.96,44.59
             86.89,43.74 87.78,43.39 89.04,43.73
             93.27,44.88 92.24,49.83 91.75,53.00
             91.17,56.75 91.08,57.16 91.00,61.00
             99.65,51.49 97.20,52.38 101.00,42.00
             90.84,44.37 89.22,38.20 91.62,35.59
             94.08,32.92 100.39,34.19 103.30,31.41
             106.90,27.97 106.48,19.19 111.13,17.85
             112.33,17.26 113.63,17.40 114.73,17.85
             119.31,20.71 117.06,28.01 116.00,32.16
             117.69,32.00 121.47,31.91 122.94,32.16
             125.86,33.10 126.28,34.58 127.83,36.85
             128.90,38.40 130.64,40.37 131.18,42.09
             132.59,46.57 127.14,59.36 126.00,65.00
             137.27,56.51 134.88,40.40 150.00,39.11
             152.95,38.85 156.33,39.17 158.49,41.43
             162.43,45.55 159.79,52.54 156.80,53.75
             151.62,55.85 152.41,48.57 153.00,46.00
             148.51,48.13 144.42,51.91 143.33,57.00
             142.08,62.83 147.66,66.95 152.99,65.48
             159.37,63.71 160.49,56.59 162.80,53.45
             164.36,51.34 167.18,49.76 168.64,46.00
             169.66,43.36 169.05,41.04 170.10,39.60
             173.10,35.48 178.13,40.19 179.74,43.04
             179.74,43.04 182.75,49.00 182.75,49.00
             184.58,52.69 185.23,53.91 186.00,58.00
             188.22,56.74 194.79,52.52 196.92,55.61
             197.63,56.64 197.41,57.91 196.92,58.98
             195.31,62.47 191.01,63.72 188.49,66.39
             186.47,68.52 185.90,71.15 182.89,73.15
             176.12,77.63 167.61,71.35 165.00,70.97
             162.17,70.56 160.30,72.44 157.00,73.47
             150.13,75.61 140.79,74.75 137.00,68.00
             129.09,73.20 127.47,74.97 119.00,69.00
             112.77,76.70 102.39,75.83 99.00,66.00
             95.13,68.77 90.60,72.52 88.70,77.00
             85.81,83.79 87.45,98.51 80.45,106.89
             74.27,114.29 60.13,111.81 62.21,98.00
             63.82,87.31 76.47,77.95 81.00,68.00
             77.80,70.11 74.69,72.69 71.00,73.75
             66.90,75.20 64.98,74.01 61.00,73.75
             56.70,73.78 52.23,74.48 48.00,73.75
             43.12,72.31 40.83,69.58 38.58,69.53
             35.90,69.48 33.44,72.65 29.00,74.15
             22.65,76.29 14.80,74.73 9.00,71.73
             -2.67,65.68 -4.23,49.16 11.00,48.10
             15.97,47.75 21.45,49.55 26.00,51.46
             27.95,52.28 32.07,54.79 33.90,54.71
             36.73,54.57 38.04,51.24 38.93,49.00
             41.20,43.27 42.72,36.15 43.00,30.00
             37.08,29.71 30.55,28.01 26.23,23.67 Z
           M 56.00,21.00
           C 65.05,20.56 73.86,17.19 77.00,8.00
             67.35,5.90 60.50,13.29 56.00,21.00 Z
           M 137.00,22.00
           C 136.99,29.70 137.46,32.79 129.00,35.00
             127.46,28.44 129.73,22.57 137.00,22.00 Z
           M 113.00,40.00
           C 110.87,49.35 106.05,57.04 107.00,67.00
             117.66,65.28 117.77,57.21 120.70,49.00
             120.70,49.00 125.00,39.00 125.00,39.00
             125.00,39.00 113.00,40.00 113.00,40.00 Z
           M 179.00,60.00
           C 179.00,60.00 175.00,53.00 175.00,53.00
             171.23,57.59 174.61,58.84 179.00,60.00 Z
           M 15.00,56.33
           C 13.27,56.07 10.22,55.85 9.13,57.60
             7.47,60.26 11.01,63.52 13.04,64.72
             18.84,68.17 24.36,66.74 30.00,64.00
             30.00,64.00 30.00,62.00 30.00,62.00
             25.53,60.08 19.75,57.04 15.00,56.33 Z
           M 172.00,65.00
           C 172.00,65.00 173.00,66.00 173.00,66.00
             173.00,66.00 173.00,65.00 173.00,65.00
             173.00,65.00 172.00,65.00 172.00,65.00 Z
           M 173.00,67.00
           C 173.00,67.00 179.00,67.00 179.00,67.00
             179.00,67.00 174.00,66.00 174.00,66.00
             174.00,66.00 173.00,67.00 173.00,67.00 Z
           M 78.00,86.00
           C 78.00,86.00 79.00,87.00 79.00,87.00
             79.00,87.00 79.00,86.00 79.00,86.00
             79.00,86.00 78.00,86.00 78.00,86.00 Z
           M 69.00,102.00
           C 76.89,100.28 77.67,94.12 78.00,87.00
             73.64,91.05 70.63,96.29 69.00,102.00 Z" />
</svg>
